PathFileType	4	(X/Y/Z)	/Users/itak/Documents/Research/Walk-IL/dataset/trc/00105_00007.trc
DataRate	CameraRate	NumFrames	NumMarkers	Units	OrigDataRate	OrigDataStartFrame	OrigNumFrames
100.000000	100.000000	4	53	mm	100.000000	269	539
Frame#	Time	RPSI			LPSI			L3			STRN			T10			C7			CLAV			RBAK			LBAK			LSHO			LUPA			LAEL			LAOL			LWTS			LWPS			LFRA			LIFD			LHPS			LHTS			RSHO			RUPA			RAEL			RAOL			RWTS			RWPS			RFRA			RIFD			RHTS			RHPS			RBHD			LFHD			RFHD			LBHD			LHIP			RHIP			RASI			LASI			LKNE			LTHI			LANK			LTIP			LTOE			LMT1			LMT5			LHEE			RKNE			RTHI			RANK			RTIP			RTOE			RMT1			RMT5			RHEE			
		X1	Y1	Z1	X2	Y2	Z2	X3	Y3	Z3	X4	Y4	Z4	X5	Y5	Z5	X6	Y6	Z6	X7	Y7	Z7	X8	Y8	Z8	X9	Y9	Z9	X10	Y10	Z10	X11	Y11	Z11	X12	Y12	Z12	X13	Y13	Z13	X14	Y14	Z14	X15	Y15	Z15	X16	Y16	Z16	X17	Y17	Z17	X18	Y18	Z18	X19	Y19	Z19	X20	Y20	Z20	X21	Y21	Z21	X22	Y22	Z22	X23	Y23	Z23	X24	Y24	Z24	X25	Y25	Z25	X26	Y26	Z26	X27	Y27	Z27	X28	Y28	Z28	X29	Y29	Z29	X30	Y30	Z30	X31	Y31	Z31	X32	Y32	Z32	X33	Y33	Z33	X34	Y34	Z34	X35	Y35	Z35	X36	Y36	Z36	X37	Y37	Z37	X38	Y38	Z38	X39	Y39	Z39	X40	Y40	Z40	X41	Y41	Z41	X42	Y42	Z42	X43	Y43	Z43	X44	Y44	Z44	X45	Y45	Z45	X46	Y46	Z46	X47	Y47	Z47	X48	Y48	Z48	X49	Y49	Z49	X50	Y50	Z50	X51	Y51	Z51	X52	Y52	Z52	X53	Y53	Z53	

270	2.69	-1196.271728515625	1097.059204101562	-140.9310607910156	-1191.950561523438	1101.79345703125	-276.8760986328125	-1200.650756835938	1140.47265625	-214.6854248046875	-961.4041137695312	1330.291625976562	-203.6534576416016	-1221.971313476562	1296.810791015625	-223.6022644042969	-1157.741577148438	1585.514892578125	-236.8256378173828	-985.4013671875	1467.744506835938	-206.8942260742188	-1234.305297851562	1404.88134765625	-156.5834655761719	-1153.721557617188	1566.521240234375	-339.8074340820312	-1059.61474609375	1546.661254882812	-393.9434509277344	-1060.984008789062	1416.81591796875	-467.1064453125	-1008.943298339844	1203.633422851562	-493.1300964355469	-1080.150390625	1175.749389648438	-450.3118286132812	-853.8245849609375	982.6552734375	-428.2951354980469	-917.840087890625	935.2216796875	-468.5625610351562	-964.0374755859375	1094.957763671875	-493.1844787597656	-789.4324340820312	802.36962890625	-398.2415466308594	-867.9321899414062	872.348876953125	-461.7284851074219	-810.77392578125	902.2250366210938	-434.0963134765625	-1124.469116210938	1562.18310546875	-49.25125122070312	-1153.842529296875	1490.265869140625	10.4428825378418	-1195.4521484375	1199.1181640625	28.71428680419922	-1186.628051757812	1197.208251953125	-68.43965911865234	-1075.988403320312	943.7235717773438	37.73618316650391	-1155.292236328125	934.5994873046875	57.74386978149414	-1182.119384765625	1124.297241210938	47.741455078125	-1071.475952148438	745.7023315429688	21.43462753295898	-1059.28515625	832.1548461914062	45.52345275878906	-1130.87158203125	831.6610107421875	66.12654113769531	-1123.612548828125	1745.18896484375	-143.8346710205078	-965.2908935546875	1819.818359375	-277.892822265625	-964.8096923828125	1824.763916015625	-147.7673950195312	-1131.693481445312	1743.590942382812	-279.340576171875	-1099.725708007812	1012.902587890625	-384.515869140625	-1063.721801757812	1006.11181640625	-20.67983245849609	-987.943115234375	1077.682739257812	-77.07159423828125	-989.1744384765625	1074.532836914062	-341.8978881835938	-1131.350341796875	510.0488586425781	-331.2197875976562	-1130.365478515625	658.2026977539062	-365.5331115722656	-1364.011108398438	46.1406135559082	-308.2607727050781	-1287.171752929688	287.6785583496094	-352.0229187011719	-1137.90771484375	35.70845031738281	-231.6759948730469	-1221.339111328125	44.23196029663086	-208.1002349853516	-1239.938232421875	33.12638092041016	-326.0407104492188	-1438.626342773438	62.36962890625	-251.8914642333984	-901.5062866210938	547.1605834960938	-69.17043304443359	-983.3914794921875	808.4970703125	-24.76164245605469	-836.7872924804688	29.23897552490234	-86.91509246826172	-883.1200561523438	413.289794921875	-58.13153457641602	-633.45166015625	110.6894302368164	-148.8116302490234	-682.4346923828125	81.78256225585938	-189.5966644287109	-711.3709106445312	64.85848236083984	-73.70863342285156	-898.039794921875	24.26840019226074	-131.4030609130859	
271	2.7	-1186.153442382812	1097.029907226562	-139.4554443359375	-1182.391235351562	1101.3828125	-275.4612426757812	-1190.741088867188	1140.0625	-213.2715759277344	-952.1343383789062	1330.145141601562	-203.1078338623047	-1212.737670898438	1296.275390625	-222.3293609619141	-1149.138549804688	1585.089599609375	-235.7823486328125	-976.5313720703125	1467.508056640625	-206.2106018066406	-1225.254272460938	1404.223754882812	-155.4700012207031	-1145.2880859375	1566.077758789062	-338.7963256835938	-1051.258178710938	1546.259033203125	-393.1398010253906	-1052.737426757812	1416.28857421875	-466.1591796875	-1000.854125976562	1202.991455078125	-491.9261779785156	-1072.019165039062	1175.3125	-448.9516296386719	-846.6005249023438	981.3270263671875	-427.1249084472656	-910.9447021484375	934.2232666015625	-467.385986328125	-956.3538818359375	1094.135131835938	-491.9476013183594	-783.2611694335938	800.7042846679688	-397.0849609375	-861.3423461914062	871.1032104492188	-460.5855102539062	-803.8455200195312	900.7046508789062	-432.9120788574219	-1115.504150390625	1561.638427734375	-48.23725509643555	-1144.667724609375	1489.564331054688	11.43581771850586	-1185.761962890625	1198.400268554688	29.57831573486328	-1177.027221679688	1196.537109375	-67.57765197753906	-1067.01513671875	942.7056884765625	38.28477096557617	-1146.305541992188	933.84326171875	58.41578674316406	-1172.558959960938	1123.607543945312	48.52407073974609	-1063.19384765625	744.7200317382812	21.84413146972656	-1050.63037109375	831.0732421875	45.96714019775391	-1122.2119140625	830.8245239257812	66.69605255126953	-1114.867919921875	1744.974487304688	-142.9302520751953	-956.5909423828125	1819.552001953125	-277.0321350097656	-956.026123046875	1824.463256835938	-146.9093170166016	-1122.995361328125	1743.424560546875	-278.4249572753906	-1090.506958007812	1012.234558105469	-383.2923583984375	-1053.053588867188	1006.334228515625	-19.7509651184082	-977.5732421875	1077.684936523438	-76.5108642578125	-979.8702392578125	1074.125122070312	-341.3089294433594	-1123.026000976562	509.3797912597656	-330.5863342285156	-1121.727661132812	657.797119140625	-364.5554809570312	-1363.419677734375	48.45283508300781	-308.6126098632812	-1282.662719726562	289.1969909667969	-351.76953125	-1137.842529296875	35.6180534362793	-231.7118072509766	-1220.974365234375	44.68692779541016	-208.3739929199219	-1239.689208984375	33.06933212280273	-326.1031494140625	-1437.855224609375	66.37139892578125	-252.2526245117188	-892.18798828125	546.8576049804688	-69.40800476074219	-972.6832885742188	808.5900268554688	-24.592529296875	-836.3455810546875	28.49832344055176	-86.9373779296875	-875.3701171875	412.4994201660156	-58.51121520996094	-629.86376953125	102.9225387573242	-147.7112274169922	-679.470458984375	75.51106262207031	-188.7174682617188	-709.8696899414062	60.31789779663086	-73.041015625	-897.164794921875	25.05205535888672	-131.9040069580078	
272	2.71	-1175.910278320312	1097.33154296875	-137.9705963134766	-1172.701171875	1101.248046875	-274.0365295410156	-1180.649536132812	1139.941162109375	-211.830078125	-942.7731323242188	1330.316040039062	-202.5127868652344	-1203.420532226562	1295.994995117188	-221.0446319580078	-1140.522338867188	1584.922241210938	-234.6934814453125	-967.633056640625	1467.570922851562	-205.4793090820312	-1216.15234375	1403.817749023438	-154.3161315917969	-1136.837524414062	1565.897705078125	-337.7394409179688	-1042.869995117188	1546.153930664062	-392.299072265625	-1044.489501953125	1416.0380859375	-465.1623840332031	-992.892333984375	1202.604125976562	-490.6552124023438	-1064.034301757812	1175.184692382812	-447.4946594238281	-839.7384033203125	980.04248046875	-426.0214233398438	-904.5032958984375	933.371826171875	-466.2367553710938	-948.9212646484375	1093.521850585938	-490.6853332519531	-777.7093505859375	798.9794921875	-396.0904235839844	-855.2825317382812	869.938720703125	-459.5201721191406	-797.46240234375	899.1636962890625	-431.85498046875	-1106.523193359375	1561.35791015625	-47.18256759643555	-1135.456298828125	1489.121215820312	12.47430610656738	-1175.939575195312	1197.931274414062	30.50909233093262	-1167.298583984375	1196.114013671875	-66.65677642822266	-1057.851806640625	941.9661254882812	38.9033317565918	-1137.130981445312	933.3536376953125	59.17008209228516	-1162.845703125	1123.17724609375	49.37446594238281	-1054.723510742188	744.0072021484375	22.34511184692383	-1041.802001953125	830.2584228515625	46.49140167236328	-1113.359252929688	830.2561645507812	67.3453369140625	-1106.096313476562	1745.089721679688	-141.9730682373047	-947.853271484375	1819.542358398438	-276.1466979980469	-947.1979370117188	1824.429443359375	-146.0312805175781	-1114.285888671875	1743.57568359375	-277.4610900878906	-1081.156616210938	1011.856140136719	-382.0481872558594	-1042.344970703125	1006.935241699219	-18.75931358337402	-967.11181640625	1078.045532226562	-75.88762664794922	-970.4459228515625	1073.991821289062	-340.6200866699219	-1114.08056640625	508.84814453125	-329.9038696289062	-1112.579956054688	657.5317993164062	-363.4659423828125	-1362.666748046875	51.18302917480469	-309.0076904296875	-1277.724853515625	291.0195617675781	-351.443603515625	-1137.733764648438	35.50532150268555	-231.7707672119141	-1220.522705078125	45.21480560302734	-208.6807556152344	-1239.348999023438	33.04154586791992	-326.1259765625	-1436.806884765625	70.95864868164062	-252.6237945556641	-882.9075317382812	546.85400390625	-69.66630554199219	-961.9501342773438	809.0084838867188	-24.46577262878418	-836.3591918945312	27.96836853027344	-86.93820953369141	-867.6925048828125	411.9852600097656	-58.86788558959961	-626.68017578125	95.04303741455078	-146.7958831787109	-677.068115234375	69.29195404052734	-187.9662475585938	-708.7554321289062	56.0528564453125	-72.43733978271484	-896.7154541015625	25.98487091064453	-132.3449096679688	
273	2.72	-1165.572265625	1097.938842773438	-136.5015716552734	-1162.893188476562	1101.38134765625	-272.62158203125	-1170.431030273438	1140.107543945312	-210.3815155029297	-933.350830078125	1330.810424804688	-201.8700256347656	-1194.037353515625	1295.9765625	-219.7716064453125	-1131.892700195312	1585.017456054688	-233.5738983154297	-958.7150268554688	1467.943725585938	-204.7062835693359	-1206.994750976562	1403.670288085938	-153.1360015869141	-1128.363647460938	1565.99169921875	-336.6495361328125	-1034.438354492188	1546.364868164062	-391.4261474609375	-1036.218994140625	1416.091918945312	-464.1299438476562	-985.0620727539062	1202.498168945312	-489.3213195800781	-1056.212646484375	1175.39306640625	-445.9550476074219	-833.2557983398438	978.8351440429688	-424.9808044433594	-898.5175170898438	932.6973266601562	-465.1071472167969	-941.7481689453125	1093.149780273438	-489.4009704589844	-772.7674560546875	797.2374267578125	-395.2613220214844	-849.7548217773438	868.8897094726562	-458.5277404785156	-791.6365356445312	897.6414794921875	-430.9253540039062	-1097.532348632812	1561.359375	-46.10407257080078	-1126.21435546875	1488.965454101562	13.5450382232666	-1165.998657226562	1197.73876953125	31.49642181396484	-1157.454956054688	1195.965087890625	-65.69034576416016	-1048.496826171875	941.5349731445312	39.59858322143555	-1127.765258789062	933.1583251953125	60.00321960449219	-1152.985473632812	1123.031982421875	50.28532791137695	-1046.047241210938	743.5902099609375	22.94131088256836	-1032.787231445312	829.7471313476562	47.1019287109375	-1104.304077148438	829.982666015625	68.07459259033203	-1097.297119140625	1745.531860351562	-140.9667358398438	-939.0819702148438	1819.7958984375	-275.2417907714844	-938.3316040039062	1824.668334960938	-145.1350708007812	-1105.567626953125	1744.04052734375	-276.4552612304688	-1071.653442382812	1011.775390625	-380.7992858886719	-1031.614135742188	1007.891967773438	-17.71721267700195	-956.5882568359375	1078.776000976562	-75.19149017333984	-960.9076538085938	1074.149169921875	-339.8263854980469	-1104.411987304688	508.4544677734375	-329.2093811035156	-1102.852416992188	657.4134521484375	-362.2916870117188	-1361.705932617188	54.36033248901367	-309.4386596679688	-1272.28466796875	293.1735229492188	-351.0639038085938	-1137.57568359375	35.37414932250977	-231.8585052490234	-1219.970703125	45.82846069335938	-209.0158996582031	-1238.904052734375	33.05428695678711	-326.0992736816406	-1435.41064453125	76.19821929931641	-253.0072479248047	-873.692626953125	547.116943359375	-69.93342590332031	-951.2388305664062	809.7239990234375	-24.35309219360352	-836.44384765625	27.63167953491211	-86.89043426513672	-860.0487670898438	411.7369995117188	-59.17630386352539	-623.7466430664062	87.51117706298828	-146.2815551757812	-675.1004638671875	63.52635192871094	-187.5049591064453	-707.7075805664062	52.33422470092773	-72.04206848144531	-896.4022827148438	27.01199340820312	-132.6340637207031	
